<svg width="128" height="34" viewBox="0 0 128 34" fill="none" xmlns="http://www.w3.org/2000/svg">
<path d="M80.0856 0.141829C74.1332 0.667491 69.2786 2.80106 65.8463 6.41885C63.1098 9.30999 61.6719 11.8765 60.6361 15.7416C60.2959 17.0558 60.2496 17.5196 60.2341 20.0706C60.2186 22.668 60.2496 23.039 60.5742 24.0904C62.0739 28.8522 65.769 31.5888 72.2006 32.7019C74.226 33.0575 79.7918 33.0575 82.2501 32.7019C84.6619 32.3464 87.1975 31.6506 89.1919 30.8157C91.6811 29.7644 91.5574 30.1046 90.537 27.4144C90.0577 26.1466 89.6402 25.0953 89.6248 25.0644C89.5939 25.0489 88.8363 25.3427 87.9241 25.7292C82.9922 27.8164 77.4109 28.0174 73.9013 26.2549C72.247 25.42 71.273 24.2295 70.6391 22.2351C70.2371 20.9828 70.1908 18.2153 70.5463 16.592C70.8401 15.185 71.5822 13.2834 72.3089 12.0311C73.0355 10.7942 75.0763 8.72249 76.2668 8.02676C78.153 6.92905 80.704 6.31063 83.3941 6.31063C86.378 6.32609 88.3879 6.75899 91.4028 8.07314L91.9748 8.32051L92.9024 7.11458C93.4126 6.46523 94.3557 5.24384 95.0051 4.42443C95.639 3.60501 96.1646 2.8629 96.1646 2.7856C96.1646 2.58461 94.3403 1.78066 92.5932 1.22407C89.362 0.17275 84.4609 -0.244687 80.0856 0.141829Z" fill="url(#paint0_linear_10346_1336)"/>
<path d="M109.77 0.188279C105.503 0.744862 102.195 2.12086 100.076 4.23897C97.5718 6.74359 96.706 10.9643 98.082 13.9637C98.5768 15.0614 99.4271 15.9581 100.757 16.8394C102.689 18.1072 104.514 18.7411 110.079 20.0707C115.089 21.2611 116.728 22.2352 116.728 23.9822C116.728 25.1108 116.001 26.1003 114.64 26.7651C113.28 27.4454 112.167 27.6618 109.523 27.7546C104.606 27.9247 100.973 26.9043 97.4636 24.3223C97.3554 24.245 97.2317 24.2141 97.2008 24.245C96.8606 24.7089 94.4642 27.5382 93.6293 28.4813C92.3616 29.8882 92.3307 29.7645 94.3869 30.7385C98.283 32.5629 102.859 33.3204 108.997 33.1658C115.259 32.9958 118.954 32.1145 122.046 30.0582C124.968 28.1102 126.298 25.6983 126.313 22.3743C126.313 19.4059 125.045 17.3805 122.092 15.6489C120.129 14.5048 118.274 13.8555 113.481 12.6496C108.348 11.3663 107.405 10.9798 106.925 9.94395C106.168 8.3515 107.683 6.86728 110.729 6.20247C112.136 5.90872 116.078 6.00148 117.794 6.37254C119.526 6.75905 121.613 7.4857 122.881 8.18143C123.515 8.50611 124.087 8.75348 124.164 8.70709C124.458 8.52157 128.091 3.69785 127.998 3.62054C127.967 3.58962 127.457 3.29587 126.854 2.95573C124.705 1.71888 122.092 0.806705 119.356 0.358346C117.315 0.0182119 111.873 -0.074552 109.77 0.188279Z" fill="url(#paint1_linear_10346_1336)"/>
<path d="M5.8132 1.00766C5.76682 1.16226 5.45761 2.84747 5.10201 4.76459C4.74642 6.68171 4.08161 10.2222 3.63325 12.6495C3.16943 15.0768 2.62831 17.9989 2.41186 19.143C2.19541 20.2871 1.57699 23.642 1.0204 26.595C0.448359 29.548 0 32.0681 0 32.2072C0 32.4082 0.556583 32.4391 4.54543 32.4391C7.54479 32.4391 9.13724 32.3773 9.19908 32.2845C9.26093 32.1918 9.91027 28.9296 10.6678 25.049C11.7965 19.2358 13.5744 10.1294 15.136 2.16721L15.4143 0.744826H10.6524C6.26156 0.744826 5.89051 0.760287 5.8132 1.00766Z" fill="url(#paint2_linear_10346_1336)"/>
<path d="M18.8767 1.54879C18.0573 5.76954 17.9027 6.63534 17.9646 6.71264C18.0109 6.74356 19.9744 6.80541 22.3245 6.82087C24.6745 6.83633 26.5916 6.88271 26.5916 6.91363C26.5916 6.94455 26.1123 9.5574 25.5094 12.7114C24.9219 15.8653 23.9788 20.921 23.4376 23.9358C22.881 26.9506 22.3245 29.9809 22.1853 30.6612C22.0616 31.3414 21.9534 32.0217 21.9534 32.1763C21.9534 32.4237 22.2472 32.4392 26.5607 32.4082L31.1525 32.3619L31.7864 29.1151C32.142 27.3217 33.2088 21.6631 34.1673 16.5147C35.1259 11.3663 35.9298 7.0837 35.9608 6.97547C35.9917 6.83633 37.1512 6.80541 40.6608 6.83633C45.2835 6.88271 45.299 6.88271 45.3763 6.55804C45.5773 5.69224 46.5358 0.976743 46.5358 0.868519C46.5358 0.791216 40.3516 0.744835 32.7913 0.744835H19.0313L18.8767 1.54879Z" fill="url(#paint3_linear_10346_1336)"/>
<path d="M50.3245 0.930361C50.1544 1.45602 44.2175 31.8053 44.2175 32.1763C44.2175 32.4237 44.5267 32.4392 48.8248 32.4082L53.4166 32.3619L54.2206 28.3421C55.5502 21.7095 56.7407 15.8963 58.8278 5.80046C59.3844 3.11031 59.8328 0.868519 59.8328 0.822137C59.8328 0.775755 57.7147 0.744835 55.1173 0.744835C51.4686 0.744835 50.3709 0.791216 50.3245 0.930361Z" fill="url(#paint4_linear_10346_1336)"/>
<defs>
<linearGradient id="paint0_linear_10346_1336" x1="78.1978" y1="32.9686" x2="78.1978" y2="3.8147e-06" gradientUnits="userSpaceOnUse">
<stop stop-color="#2A59AD"/>
<stop offset="0.5" stop-color="#375599"/>
<stop offset="1" stop-color="#3564CD"/>
</linearGradient>
<linearGradient id="paint1_linear_10346_1336" x1="110.373" y1="33.1854" x2="110.373" y2="0.0365944" gradientUnits="userSpaceOnUse">
<stop stop-color="#2A59AD"/>
<stop offset="0.5" stop-color="#375599"/>
<stop offset="1" stop-color="#3564CD"/>
</linearGradient>
<linearGradient id="paint2_linear_10346_1336" x1="7.70713" y1="32.4391" x2="7.70713" y2="0.744825" gradientUnits="userSpaceOnUse">
<stop stop-color="#2A59AD"/>
<stop offset="0.5" stop-color="#375599"/>
<stop offset="1" stop-color="#3564CD"/>
</linearGradient>
<linearGradient id="paint3_linear_10346_1336" x1="32.2441" y1="32.42" x2="32.2441" y2="0.744835" gradientUnits="userSpaceOnUse">
<stop stop-color="#2A59AD"/>
<stop offset="0.5" stop-color="#375599"/>
<stop offset="1" stop-color="#3564CD"/>
</linearGradient>
<linearGradient id="paint4_linear_10346_1336" x1="52.0252" y1="32.42" x2="52.0252" y2="0.744835" gradientUnits="userSpaceOnUse">
<stop stop-color="#2A59AD"/>
<stop offset="0.5" stop-color="#375599"/>
<stop offset="1" stop-color="#3564CD"/>
</linearGradient>
</defs>
</svg>
