<svg width="159" height="80" viewBox="0 0 159 80" fill="none" xmlns="http://www.w3.org/2000/svg">
<g clip-path="url(#clip0_671_45497)">
<path d="M-37.8824 79.8631C-38.3221 79.6643 -45.3002 75.4289 -52.4349 71.0292C-55.354 69.2295 -58.824 67.1012 -60.1433 66.3008C-65.2309 63.221 -68.8854 60.8807 -69.4313 60.3532L-70 59.8046V40.0031C-70 21.5242 -69.9697 20.1619 -69.5577 19.6583C-69.3151 19.3615 -64.3387 16.1757 -58.5005 12.579C-52.6623 8.98235 -47.0895 5.53148 -46.1165 4.91393C-39.7046 0.832246 -38.1958 -0.00264416 -37.2354 6.28109e-06C-36.1537 0.00265672 -35.9692 0.108675 -25.1395 7.01573C-21.5253 9.31896 -15.6669 12.9925 -12.1236 15.1791C-8.58023 17.3657 -5.39576 19.4384 -5.04699 19.7856L-4.41515 20.4164L-4.34439 33.3505C-4.27868 45.8023 -4.29384 46.3032 -4.75887 46.7432C-5.833 47.7636 -19.0561 53.9842 -25.3796 56.4438C-30.783 58.5456 -32.4334 58.5244 -33.3786 56.3405C-34.0054 54.8986 -33.9953 51.9089 -33.3407 44.2597C-32.5244 34.7208 -32.4435 31.7947 -32.9566 30.4324C-33.8791 27.994 -35.9565 26.5177 -38.4814 26.5071C-43.3036 26.4885 -45.7627 30.7875 -56.1804 57.4377C-58.4727 63.3058 -58.4828 63.327 -58.9959 62.8367C-59.279 62.5637 -60.0245 62.084 -60.6488 61.7686C-61.7583 61.2067 -61.7709 61.2067 -61.1543 61.7421L-60.5224 62.2907L-61.2579 62.1635C-62.2107 61.9991 -61.9226 62.2986 -59.9234 63.5576C-59.0717 64.0956 -57.0372 65.3891 -55.4045 66.4333C-44.4333 73.4411 -37.4704 77.764 -37.0003 77.8594C-36.2725 78.0052 -36.1638 77.9416 -26.3248 71.6521C-18.26 66.4943 -16.7335 65.4686 -17.7217 65.8635C-17.9517 65.9536 -18.212 65.9032 -18.3055 65.7469C-18.3965 65.5905 -18.351 65.4633 -18.2044 65.4633C-18.0578 65.4633 -17.9365 65.3467 -17.9365 65.2035C-17.9365 65.0604 -18.4774 65.2565 -19.137 65.6382C-20.2718 66.2955 -34.5715 75.1533 -35.8479 75.9908C-36.6263 76.5024 -36.2143 76.7144 -45.1081 71.1617C-49.1797 68.6199 -52.9252 66.3326 -53.4307 66.0808C-54.5503 65.5216 -54.7525 64.8219 -54.3481 62.9268C-53.5318 59.0943 -46.2479 42.7993 -42.927 37.3686C-41.6785 35.3251 -40.4401 34.1881 -39.467 34.1881C-38.7897 34.1881 -37.9708 35.007 -37.7585 35.8949C-37.6701 36.2554 -37.9077 40.0455 -38.2817 44.3154C-39.1587 54.3102 -39.1941 57.6471 -38.446 59.6588C-37.804 61.3842 -36.4443 62.9294 -35.1781 63.3668C-32.8226 64.1831 -28.5842 62.7413 -18.5683 57.7213C-9.66447 53.258 -4.71085 50.9097 -4.4935 51.0502C-4.3823 51.1217 -4.28879 53.1175 -4.28879 55.4817C-4.28879 58.9458 -4.36461 59.8947 -4.68305 60.3691C-5.06468 60.9416 -10.1902 64.199 -21.9803 71.3578C-23.3021 72.1609 -26.9263 74.3953 -30.04 76.3248C-35.5143 79.7226 -36.8537 80.3269 -37.8824 79.8631ZM-35.1225 67.1861L-34.2379 66.8282L-35.2489 66.807C-37.8697 66.7514 -40.0458 65.132 -41.3373 62.2774C-41.7315 61.4054 -42.1435 60.6925 -42.2547 60.6925C-43.0635 60.6925 -41.5015 64.5224 -40.1241 65.9165C-38.494 67.5651 -37.0003 67.9441 -35.1225 67.1861ZM-28.0864 50.6341C-27.1184 48.5163 -25.2481 46.4835 -24.5531 46.7909C-23.5371 47.2388 -23.0241 47.2097 -22.511 46.6716C-22.2178 46.3642 -21.9803 45.9295 -21.9803 45.7042C-21.9803 45.039 -23.1504 43.9761 -23.6711 44.1723C-24.3762 44.4347 -24.7604 44.8163 -24.7604 45.2483C-24.7604 45.4657 -25.4857 46.3748 -26.3703 47.2706C-27.8715 48.7893 -29.3096 51.1376 -29.3096 52.0706C-29.3096 52.8975 -28.9077 52.4258 -28.0864 50.6341ZM-43.7736 51.9911C-43.5234 51.8241 -43.5967 51.3152 -44.1073 49.6746C-44.8174 47.3873 -44.9741 47.101 -45.376 47.3846C-45.841 47.7159 -46.4956 48.8689 -46.4956 49.3592C-46.4956 49.8071 -44.5976 52.2164 -44.2513 52.2058C-44.1654 52.2058 -43.9506 52.1077 -43.7736 51.9911ZM-58.9833 50.0457C-59.4786 49.4413 -59.9538 48.5428 -60.0422 48.0525C-60.1661 47.3661 -60.2773 47.2256 -60.5275 47.4429C-60.7069 47.5993 -60.9192 48.0101 -61.0026 48.3573C-61.1265 48.8742 -60.8914 49.2505 -59.701 50.4538C-58.0355 52.1395 -57.5174 51.8427 -58.9833 50.0457ZM-15.9146 48.8662C-15.9146 47.9624 -16.0107 47.4721 -16.1674 47.5728C-16.3064 47.6629 -16.4201 48.3918 -16.4201 49.1949C-16.4201 50.0987 -16.324 50.589 -16.1674 50.4883C-16.0283 50.3982 -15.9146 49.6693 -15.9146 48.8662ZM-14.1455 42.9133C-12.2045 41.8293 -11.1556 40.6922 -11.5271 40.0747C-11.6762 39.8255 -11.9568 39.5897 -12.1514 39.5499C-12.6644 39.4439 -15.9146 42.6138 -15.9146 43.2208C-15.9146 43.8834 -15.8641 43.8754 -14.1455 42.9133ZM-54.52 39.868C-53.9993 39.6056 -53.5722 39.2424 -53.5722 39.0649C-53.5722 38.7203 -55.076 37.6336 -55.5536 37.6336C-55.9782 37.6336 -57.8788 40.7665 -57.5326 40.891C-57.2015 41.0129 -55.9378 40.5836 -54.52 39.868ZM-26.6003 37.0797C-24.7806 34.9328 -24.5759 34.7685 -23.8455 34.8931C-23.2263 34.9991 -22.8775 34.8639 -22.2027 34.249C-21.126 33.263 -16.5919 31.4926 -15.4117 31.5959C-14.6737 31.6595 -14.5145 31.5668 -14.2996 30.9439C-14.0899 30.3343 -14.1455 30.1117 -14.6661 29.5312C-15.2777 28.8501 -15.2828 28.7918 -15.2828 23.6313C-15.2828 19.1733 -15.3384 18.4179 -15.6619 18.4179C-15.9854 18.4179 -16.041 19.1892 -16.041 23.7692C-16.041 27.6918 -16.1244 29.2079 -16.3569 29.4544C-16.5313 29.6372 -16.6728 30.0004 -16.6728 30.2601C-16.6728 30.7557 -17.5245 31.2805 -19.9938 32.3062L-21.4167 32.8999L-22.0662 32.2188C-22.4402 31.8265 -23.0038 31.5376 -23.3905 31.5376H-24.0653L-23.9718 27.7607C-23.8884 24.5351 -23.9314 23.9839 -24.2549 23.9839C-24.5759 23.9839 -24.634 24.6332 -24.6365 28.2246C-24.639 30.6312 -24.7629 32.8973 -24.9272 33.4671C-25.099 34.0635 -25.971 35.3436 -27.0906 36.6477C-29.259 39.1656 -29.4157 39.4015 -28.928 39.4015C-28.7283 39.4015 -27.682 38.3572 -26.6003 37.0797ZM-6.47495 33.8568C-6.38649 32.6535 -6.3132 29.3749 -6.3132 26.568C-6.31067 20.7424 -6.17924 21.1187 -8.73187 19.6159C-9.55579 19.1309 -11.4235 17.9912 -12.8818 17.0795C-23.4284 10.5037 -36.5656 2.91284 -37.3971 2.91284C-37.9456 2.91284 -41.4409 4.87947 -41.4409 5.18692C-41.4409 5.25848 -41.221 5.19222 -40.9531 5.0438C-40.3339 4.69659 -40.1039 4.69394 -40.3036 5.0332C-40.5336 5.42281 -40.3516 5.3698 -38.9616 4.63563C-38.2691 4.26987 -37.5665 3.97302 -37.3971 3.97302C-36.9043 3.97302 -30.4242 8.15542 -30.6213 8.34625C-30.6643 8.38865 -31.2405 8.333 -31.9001 8.22698C-32.6154 8.11036 -33.1006 8.13421 -33.1006 8.28264C-33.1006 8.43636 -33.8942 8.46022 -35.1225 8.34625C-36.8285 8.18722 -37.1444 8.22168 -37.1444 8.55563C-37.1444 9.00886 -37.665 9.2739 -38.5547 9.2739C-38.8908 9.2739 -39.1663 9.36402 -39.1663 9.47534C-39.1663 9.584 -39.6111 9.81989 -40.157 10.0001C-43.4704 11.0842 -45.6439 14.5138 -44.6304 17.0583C-44.3044 17.8719 -44.1351 18.0283 -43.7206 17.8905C-43.2985 17.75 -43.21 17.8375 -43.21 18.41C-43.21 18.7916 -42.9927 19.5444 -42.7298 20.0851C-41.7998 21.9854 -40.1545 23.0562 -38.1604 23.0562C-35.1377 23.0562 -33.1208 21.1081 -32.7013 17.7845C-32.5396 16.499 -32.5042 16.446 -32.1655 16.9549C-31.9658 17.2544 -31.7055 17.4373 -31.5893 17.3604C-31.4705 17.2835 -31.334 17.3524 -31.2809 17.5141C-31.2304 17.6732 -31.0231 17.4664 -30.8184 17.0503C-30.6162 16.6368 -29.3829 15.195 -28.0788 13.8459C-25.7662 11.4579 -25.5085 11.0868 -26.5775 11.6858C-26.8934 11.8634 -27.035 11.8713 -26.9364 11.7097C-26.8505 11.5612 -26.9212 11.3704 -27.0956 11.2856C-27.27 11.2034 -27.131 11.2087 -26.7848 11.3015C-26.2212 11.4526 -26.1908 11.4234 -26.4992 11.0338C-26.6887 10.7953 -26.9844 10.5991 -27.1538 10.5991C-27.3231 10.5991 -27.6795 10.3394 -27.9448 10.0187L-28.425 9.44088L-27.5404 9.98952C-27.0527 10.289 -25.8774 11.0285 -24.9246 11.6275C-23.9718 12.2291 -23.1479 12.7195 -23.0923 12.7195C-22.7031 12.7195 -8.59035 21.3997 -8.13542 21.9192C-7.56171 22.5712 -7.55918 22.6242 -7.62995 29.1443C-7.68302 34.1271 -7.62742 35.6829 -7.39996 35.5901C-7.23568 35.5239 -7.16997 35.28 -7.25338 35.0494C-7.35952 34.7606 -7.30897 34.6943 -7.08909 34.8374C-6.9147 34.9514 -6.82878 35.2668 -6.89702 35.5424C-6.96526 35.8181 -6.93492 36.0434 -6.82877 36.0434C-6.72515 36.0434 -6.56593 35.0601 -6.47495 33.8568ZM-50.9109 33.6765C-51.3532 32.7754 -51.4366 32.7224 -51.702 33.1676C-51.8081 33.3532 -51.7702 33.4035 -51.6034 33.2949C-51.4138 33.1729 -51.3734 33.4194 -51.477 34.09C-51.5983 34.8586 -51.5276 35.1396 -51.1485 35.4338C-50.7087 35.773 -50.6582 35.7465 -50.5874 35.1475C-50.5444 34.7844 -50.6885 34.1218 -50.9109 33.6765ZM-53.4484 28.3968C-53.5065 28.3359 -53.4357 28.0523 -53.2891 27.7687C-52.6649 26.5442 -53.9513 25.0679 -55.0886 25.7066C-56.1147 26.2818 -56.0111 27.9012 -54.9243 28.2829C-54.2546 28.5161 -53.2613 28.593 -53.4484 28.3968ZM3.97314 57.5703C1.04899 57.504 0.748226 57.451 0.867012 57.0402C1.00349 56.5631 4.87034 36.6159 6.00513 30.5437L6.65971 27.0319H11.2949H15.93V27.6547C15.93 28.32 10.4861 57.2177 10.3345 57.3635C10.1449 57.5411 7.08684 57.6418 3.97314 57.5703ZM27.0504 57.4748C23.0698 57.1939 20.5298 55.9985 18.7834 53.584C17.4364 51.7207 17.1053 50.035 17.2645 45.8606C17.6537 35.675 21.9603 29.025 29.1987 27.4294C30.619 27.1193 33.48 27.0398 43.6678 27.0372C55.1647 27.0319 56.3677 27.0716 56.3677 27.4586C56.3677 28.1875 55.5691 32.5024 55.3719 32.8363C55.2329 33.0722 52.4933 33.1676 44.5928 33.2074C34.2609 33.2604 33.9653 33.2763 32.6005 33.8541C30.197 34.8745 28.8221 36.8093 27.8061 40.5889C26.5576 45.2457 26.919 48.7045 28.7816 49.929C30.4775 51.0396 31.587 51.1509 41.0368 51.1509H49.9988L52.6272 48.1691C54.0729 46.5285 58.3188 41.6199 62.0593 37.2626C65.8023 32.9026 69.3002 29.0038 69.836 28.5956C71.6127 27.2465 73.0609 26.8993 76.8393 26.9099C80.8527 26.9232 81.9723 27.3049 83.5166 29.192C84.5098 30.4006 84.717 30.8565 89.4103 42.1394C95.4027 56.5392 95.7768 57.5119 95.3269 57.5172C95.0969 57.5225 94.0784 57.5782 93.0624 57.6445C90.3354 57.8247 87.0296 57.4139 86.241 56.7963C84.9015 55.7467 85.0406 56.0569 79.6977 42.2719C76.5663 34.1907 76.1999 33.3929 75.6211 33.3929C75.3355 33.3929 74.6228 34.0264 73.905 34.9169C73.2302 35.7545 69.5479 40.1887 65.724 44.766C61.8976 49.3459 58.2354 53.7616 57.5859 54.5806C56.9338 55.3995 55.9103 56.3643 55.3113 56.7248C54.2397 57.3662 54.1032 57.3794 47.9011 57.4457C44.426 57.4828 38.8532 57.5411 35.517 57.5782C32.1809 57.6153 28.3722 57.5676 27.0504 57.4748ZM103.882 57.5385C99.8963 57.0614 97.6293 55.4393 97.0379 52.6404C96.6487 50.7904 96.6462 50.8143 99.3959 36.706L101.259 27.1644L105.985 27.0928L110.713 27.0213L110.557 28.153C110.468 28.7759 109.738 32.6243 108.934 36.706C106.647 48.2831 106.589 48.6648 106.968 49.5023C107.147 49.8999 107.693 50.4326 108.178 50.6871C108.972 51.1032 110.016 51.1509 118.288 51.1535C123.363 51.1562 127.659 51.2569 127.841 51.3762C128.104 51.5511 128.054 52.174 127.591 54.5541L127.015 57.5119L117.911 57.5146C112.907 57.5146 108.072 57.565 107.168 57.6259C106.263 57.6842 104.787 57.6445 103.882 57.5385ZM63.74 50.9362C63.7855 50.8196 64.7914 49.5076 65.9717 48.0207L68.1199 45.3199H73.0862H78.0499L78.9496 47.7716C79.445 49.1206 79.9252 50.4326 80.0162 50.6871C80.1678 51.1217 79.68 51.1509 71.916 51.1509C67.3718 51.1509 63.692 51.0555 63.74 50.9362ZM-28.1698 11.662C-28.2582 11.5109 -28.1571 11.4685 -27.9322 11.5586C-27.495 11.7335 -27.4141 11.9243 -27.778 11.9243C-27.9094 11.9243 -28.0864 11.8077 -28.1698 11.662ZM-29.4991 9.14403C-29.9515 8.9373 -30.3205 8.70671 -30.3205 8.62984C-30.3205 8.46552 -29.0392 9.01151 -28.6904 9.32426C-28.3593 9.62111 -28.5413 9.5787 -29.4991 9.14403ZM-40.0508 4.50311C-39.9649 4.35733 -39.7804 4.23806 -39.6414 4.23806C-39.5024 4.23806 -39.4594 4.35733 -39.5454 4.50311C-39.6313 4.64888 -39.8158 4.76815 -39.9548 4.76815C-40.0938 4.76815 -40.1368 4.64888 -40.0508 4.50311Z" fill="#E8E8E8"/>
</g>
<defs>
<clipPath id="clip0_671_45497">
<rect width="159" height="80" fill="white"/>
</clipPath>
</defs>
</svg>
